<svg id="svg" version="1.1" width="400" height="316.8458781362007" viewBox="0 0 400 316.8458781362007" xmlns="http://www.w3.org/2000/svg" xmlns:xlink="http://www.w3.org/1999/xlink" ><g id="svgg"><path id="path0" d="M114.184 20.295 L 113.471 20.582 113.471 53.693 C 113.471 74.441,113.586 87.109,113.780 87.618 C 114.205 88.735,121.433 88.911,122.017 87.818 C 122.236 87.409,122.345 77.951,122.345 59.369 C 122.345 32.015,122.424 29.709,123.370 29.108 C 123.591 28.968,136.537 28.836,152.139 28.816 C 167.742 28.796,180.864 28.681,181.300 28.560 C 182.324 28.276,182.715 21.430,181.762 20.476 C 181.181 19.895,115.615 19.720,114.184 20.295 M137.349 67.098 C 136.021 67.357,136.157 67.949,140.721 81.775 C 141.383 83.780,142.381 86.918,142.939 88.748 C 143.496 90.578,144.148 92.575,144.388 93.185 C 144.627 93.796,144.997 94.937,145.209 95.721 C 145.421 96.506,145.707 97.299,145.846 97.485 C 145.984 97.670,146.307 98.669,146.563 99.703 C 146.820 100.738,147.604 103.225,148.306 105.230 C 149.008 107.235,149.587 109.187,149.593 109.569 C 149.599 109.951,149.745 110.351,149.917 110.457 C 150.089 110.563,150.454 111.463,150.729 112.457 C 151.003 113.450,151.366 114.548,151.534 114.897 C 151.703 115.246,152.044 116.244,152.291 117.116 C 152.539 117.987,153.184 119.913,153.726 121.395 C 154.267 122.876,154.847 124.659,155.015 125.357 C 155.183 126.054,155.462 126.910,155.635 127.258 C 155.808 127.607,156.197 128.671,156.501 129.623 C 157.188 131.780,157.195 131.782,163.586 131.823 C 169.261 131.859,169.945 131.614,170.354 129.403 C 170.476 128.747,170.769 127.781,171.005 127.258 C 171.241 126.735,171.655 125.540,171.925 124.603 C 172.194 123.665,172.541 122.738,172.695 122.542 C 172.850 122.347,173.079 121.616,173.205 120.919 C 173.330 120.222,173.705 119.053,174.038 118.322 C 174.371 117.590,174.643 116.837,174.643 116.648 C 174.643 116.459,175.000 115.457,175.436 114.422 C 175.872 113.386,176.228 112.235,176.228 111.864 C 176.228 111.493,176.429 110.740,176.675 110.191 C 177.242 108.921,178.366 105.540,178.903 103.487 C 179.131 102.615,179.534 101.403,179.800 100.792 C 180.066 100.182,180.715 98.257,181.244 96.513 C 181.773 94.770,182.422 92.702,182.687 91.918 C 183.263 90.211,183.633 89.072,187.002 78.605 C 188.433 74.160,189.724 70.238,189.869 69.889 C 191.008 67.165,190.821 67.056,184.750 66.928 C 177.003 66.766,177.108 66.734,176.138 69.507 C 175.076 72.541,174.358 74.718,173.974 76.070 C 173.037 79.367,172.411 81.466,171.942 82.884 C 171.654 83.756,171.233 85.277,171.006 86.265 C 170.779 87.252,170.514 88.189,170.417 88.346 C 170.320 88.504,169.938 89.764,169.569 91.147 C 169.200 92.529,168.764 93.796,168.601 93.962 C 168.438 94.128,168.304 94.595,168.304 95.001 C 168.304 95.406,167.951 96.840,167.519 98.186 C 167.087 99.532,166.224 102.310,165.601 104.358 C 164.631 107.550,164.344 108.147,163.595 108.534 C 162.361 109.173,162.355 109.159,159.595 99.683 C 159.341 98.811,158.701 96.665,158.172 94.914 C 157.643 93.162,157.211 91.556,157.211 91.344 C 157.211 91.132,157.069 90.710,156.895 90.408 C 156.589 89.874,155.828 87.287,154.730 83.043 C 154.436 81.910,154.093 80.822,153.966 80.625 C 153.839 80.429,153.527 79.431,153.273 78.407 C 153.019 77.383,152.598 75.903,152.338 75.119 C 152.078 74.334,151.450 72.338,150.941 70.681 C 150.223 68.345,149.845 67.583,149.255 67.279 C 148.528 66.904,139.077 66.761,137.349 67.098 M199.139 67.085 C 198.647 67.191,198.381 67.540,198.254 68.246 C 197.967 69.835,198.226 131.137,198.521 131.432 C 198.865 131.776,206.538 131.982,208.747 131.706 L 210.460 131.492 210.463 126.681 C 210.468 120.466,210.614 119.593,211.756 119.003 C 212.953 118.383,225.268 118.328,226.079 118.938 C 226.654 119.371,228.526 123.306,228.526 124.082 C 228.526 124.347,228.659 124.564,228.822 124.564 C 228.984 124.564,229.215 124.885,229.335 125.277 C 229.568 126.040,230.777 128.831,231.589 130.479 C 232.227 131.774,232.559 131.845,238.074 131.850 C 245.079 131.856,245.199 131.805,244.012 129.319 C 243.148 127.509,242.569 126.198,240.724 121.870 C 239.907 119.952,238.963 117.765,238.627 117.009 C 237.866 115.296,238.334 114.334,240.863 112.409 C 242.557 111.119,245.008 108.395,245.008 107.801 C 245.008 107.607,245.137 107.448,245.295 107.448 C 246.459 107.448,248.995 101.195,249.922 96.038 C 252.150 83.641,242.926 70.514,229.952 67.619 C 227.785 67.135,201.061 66.672,199.139 67.085 M228.293 79.811 C 239.457 83.687,241.485 97.502,231.846 104.021 C 231.153 104.490,230.158 104.970,229.635 105.089 C 229.113 105.208,228.334 105.525,227.905 105.794 C 226.717 106.538,213.639 106.781,211.991 106.089 C 210.433 105.435,210.377 104.878,210.527 91.442 C 210.652 80.329,210.721 79.689,211.851 79.233 C 213.674 78.496,225.726 78.920,228.293 79.811 M336.688 217.819 C 335.978 218.162,335.975 218.203,335.975 225.549 C 335.975 235.047,335.460 236.110,332.169 233.398 C 328.498 230.374,319.964 231.184,314.112 235.114 C 312.800 235.995,308.716 240.182,308.716 240.646 C 308.716 240.825,308.396 241.487,308.004 242.118 C 305.380 246.345,304.749 254.445,306.646 259.561 C 311.041 271.418,325.475 276.470,335.024 269.493 C 335.808 268.920,337.059 268.161,337.803 267.806 L 339.156 267.160 340.079 267.817 C 340.586 268.178,341.288 268.938,341.638 269.504 C 343.130 271.918,344.754 272.599,345.200 270.997 C 345.553 269.728,345.528 219.177,345.174 218.246 C 344.833 217.347,338.343 217.021,336.688 217.819 M30.141 219.943 C 29.642 220.259,29.973 221.990,31.054 224.723 C 31.365 225.507,31.720 226.719,31.844 227.417 C 31.968 228.114,32.184 228.827,32.324 229.002 C 32.464 229.176,32.866 230.246,33.217 231.379 C 33.569 232.512,34.014 233.867,34.207 234.390 C 34.798 235.992,38.784 248.281,42.793 260.856 C 46.720 273.175,45.777 271.949,51.319 271.949 C 56.630 271.949,56.573 271.984,57.829 267.987 C 58.321 266.418,58.899 264.707,59.112 264.184 C 59.325 263.661,59.739 262.377,60.031 261.331 C 60.324 260.285,60.684 259.144,60.831 258.796 C 60.979 258.447,61.918 255.594,62.919 252.456 C 63.920 249.319,65.313 245.040,66.014 242.948 C 66.715 240.856,67.402 238.716,67.541 238.193 C 67.680 237.670,68.237 236.030,68.777 234.548 C 69.318 233.067,69.956 231.141,70.195 230.269 C 70.694 228.449,71.476 226.145,72.291 224.089 C 73.942 219.923,73.684 219.651,68.086 219.651 C 62.554 219.651,62.738 219.543,61.502 223.526 C 60.946 225.317,60.280 227.425,60.022 228.209 C 59.763 228.994,59.283 230.563,58.954 231.696 C 58.625 232.829,57.984 234.968,57.528 236.450 C 57.072 237.932,56.429 240.071,56.099 241.204 C 55.301 243.947,54.341 247.061,53.754 248.811 C 53.492 249.596,53.120 250.850,52.929 251.599 C 52.247 254.266,50.718 254.137,49.948 251.347 C 49.683 250.388,49.240 248.891,48.964 248.019 C 48.687 247.147,48.092 245.222,47.642 243.740 C 47.192 242.258,46.574 240.261,46.268 239.303 C 45.961 238.344,45.333 236.276,44.872 234.707 C 44.410 233.138,43.770 230.998,43.449 229.952 C 43.128 228.906,42.476 226.767,42.000 225.198 C 40.840 221.374,40.551 220.628,40.023 220.100 C 39.506 219.583,30.925 219.447,30.141 219.943 M80.586 220.013 C 80.069 220.535,80.002 270.372,80.518 271.336 C 80.815 271.892,81.215 271.949,84.761 271.949 C 89.756 271.949,89.697 272.013,89.704 266.651 C 89.710 261.455,89.531 261.596,96.369 261.442 C 101.808 261.320,102.659 261.549,103.391 263.329 C 103.585 263.799,103.994 264.754,104.300 265.452 C 107.364 272.426,106.791 271.949,112.110 271.949 C 117.676 271.949,117.598 272.274,114.008 264.025 C 111.558 258.398,111.571 259.042,113.869 256.857 C 117.501 253.402,119.394 250.673,120.440 247.385 C 120.662 246.688,121.003 245.917,121.198 245.673 C 122.566 243.959,121.300 234.107,119.290 230.822 C 115.881 225.252,112.282 222.416,106.190 220.501 C 103.603 219.687,81.330 219.263,80.586 220.013 M151.743 219.866 C 150.929 220.085,150.876 271.445,151.690 271.757 C 153.089 272.294,160.037 271.957,160.369 271.336 C 160.572 270.956,160.697 267.417,160.697 262.033 C 160.697 249.803,159.983 250.713,169.585 250.713 L 176.212 250.713 176.730 249.712 C 177.380 248.454,177.269 242.552,176.579 241.721 C 176.208 241.273,175.251 241.204,169.392 241.204 C 160.610 241.204,160.905 241.385,160.748 235.932 C 160.539 228.737,159.642 229.160,175.119 229.160 L 187.293 229.160 187.496 228.080 C 187.767 226.636,187.549 220.405,187.216 220.073 C 186.943 219.801,152.730 219.601,151.743 219.866 M266.165 219.994 C 265.505 220.378,265.285 270.116,265.938 271.336 C 266.256 271.931,266.784 271.949,283.360 271.949 C 303.347 271.949,301.109 272.578,301.109 266.962 C 301.109 261.969,302.397 262.441,288.764 262.436 C 273.902 262.431,275.119 262.936,275.119 256.768 C 275.119 250.374,274.578 250.713,284.787 250.713 C 293.302 250.713,292.599 251.181,292.482 245.598 L 292.393 241.363 284.401 241.204 C 274.580 241.010,275.319 241.420,275.171 236.081 C 274.967 228.765,273.788 229.359,288.906 229.160 L 300.951 229.002 301.040 224.767 C 301.099 221.914,301.009 220.388,300.763 220.091 C 300.306 219.540,267.104 219.447,266.165 219.994 M104.019 229.890 C 104.598 230.145,105.512 230.521,106.050 230.725 C 110.851 232.546,113.484 240.275,110.988 245.220 C 108.517 250.116,105.770 251.468,98.004 251.615 C 88.873 251.788,89.698 252.864,89.704 240.786 C 89.709 230.329,89.788 229.811,91.451 229.414 C 93.143 229.010,102.857 229.378,104.019 229.890 M201.743 232.066 C 188.300 235.978,182.511 249.847,188.992 262.610 C 195.203 274.842,214.544 275.978,222.135 264.558 C 224.299 261.302,225.040 259.878,225.040 258.972 C 225.040 258.656,225.235 257.917,225.473 257.329 C 227.399 252.583,225.443 243.604,221.414 238.693 C 220.120 237.115,216.292 233.922,215.689 233.918 C 215.515 233.917,214.802 233.640,214.105 233.302 C 210.199 231.411,205.581 230.949,201.743 232.066 M246.243 233.772 C 245.092 234.002,243.381 234.624,242.440 235.154 C 241.499 235.685,240.319 236.349,239.819 236.630 C 238.871 237.162,236.767 237.029,236.767 236.437 C 236.767 235.890,234.486 233.597,233.941 233.597 C 232.651 233.597,232.647 233.663,232.647 252.485 C 232.647 274.235,232.085 272.014,237.551 271.882 C 242.558 271.762,242.145 272.890,242.151 259.306 C 242.155 248.653,242.171 248.373,242.866 246.983 C 244.536 243.639,247.083 242.496,253.407 242.254 C 258.848 242.045,258.637 242.229,258.637 237.706 C 258.637 233.142,258.804 233.270,252.907 233.318 C 250.393 233.338,247.394 233.542,246.243 233.772 M209.150 241.578 C 221.988 245.383,217.049 266.225,204.029 263.187 C 195.505 261.199,192.779 249.198,199.557 243.495 C 202.314 241.175,205.586 240.521,209.150 241.578 M328.685 241.796 C 337.109 245.046,338.277 256.871,330.657 261.761 C 322.587 266.940,312.970 259.294,315.071 249.368 C 316.434 242.927,322.652 239.468,328.685 241.796 " stroke="none" fill="#f9ab24" fill-rule="evenodd"></path><path id="path1" d="M0.000 158.479 L 0.000 316.957 200.000 316.957 L 400.000 316.957 400.000 158.479 L 400.000 0.000 200.000 0.000 L 0.000 0.000 0.000 158.479 M182.552 19.529 L 183.536 20.357 183.448 24.487 C 183.316 30.643,187.267 29.921,152.671 30.111 L 123.772 30.269 123.691 59.303 C 123.596 93.386,124.206 89.477,118.955 89.649 C 115.043 89.778,113.659 89.570,112.819 88.730 C 112.216 88.128,112.203 87.367,112.203 54.228 L 112.203 20.342 113.178 19.521 L 114.153 18.700 147.861 18.700 L 181.568 18.700 182.552 19.529 M273.891 19.542 C 274.576 20.367,274.537 88.638,273.851 89.072 C 273.005 89.607,265.223 89.456,264.413 88.889 L 263.708 88.395 263.708 59.908 C 263.708 42.165,263.592 31.113,263.399 30.607 L 263.090 29.794 234.535 29.794 C 205.116 29.794,205.164 29.796,204.210 28.554 C 203.400 27.499,203.685 20.823,204.581 19.856 L 205.358 19.017 239.407 19.017 C 270.694 19.017,273.492 19.060,273.891 19.542 M150.167 66.104 C 150.555 66.375,150.872 66.739,150.872 66.913 C 150.872 67.087,151.152 67.846,151.495 68.599 C 151.839 69.352,152.215 70.565,152.331 71.294 C 152.448 72.023,152.809 73.141,153.134 73.778 C 153.459 74.415,153.727 75.298,153.731 75.741 C 153.735 76.183,153.997 77.116,154.312 77.813 C 154.628 78.510,154.983 79.509,155.100 80.032 C 155.309 80.962,156.059 83.515,157.056 86.688 C 158.531 91.384,158.889 92.572,159.398 94.453 C 159.704 95.586,160.051 96.727,160.169 96.989 C 160.426 97.559,161.500 101.142,162.231 103.866 C 162.886 106.308,163.828 105.972,164.633 103.011 C 164.893 102.052,165.327 100.590,165.596 99.762 C 166.877 95.823,167.101 95.109,167.656 93.185 C 167.983 92.052,168.422 90.483,168.631 89.699 C 168.840 88.914,169.224 87.773,169.484 87.163 C 169.921 86.136,170.358 84.661,171.688 79.715 C 171.969 78.669,172.373 77.599,172.586 77.338 C 172.799 77.076,173.063 76.173,173.172 75.330 C 173.281 74.488,173.579 73.347,173.835 72.795 C 174.090 72.243,174.473 71.078,174.686 70.206 C 174.900 69.334,175.451 67.979,175.911 67.195 L 176.748 65.769 183.507 65.683 C 192.905 65.564,193.036 65.714,190.165 73.376 C 189.838 74.247,189.187 76.244,188.719 77.813 C 188.250 79.382,187.621 81.307,187.322 82.092 C 187.023 82.876,186.389 84.802,185.913 86.371 C 185.437 87.940,184.845 89.723,184.596 90.333 C 184.347 90.943,183.943 92.155,183.698 93.027 C 183.151 94.977,182.041 98.195,181.622 99.049 C 181.451 99.398,181.158 100.396,180.971 101.268 C 180.783 102.139,180.446 103.138,180.220 103.487 C 179.995 103.835,179.707 104.691,179.581 105.388 C 179.454 106.086,179.171 106.941,178.951 107.290 C 178.731 107.639,178.376 108.637,178.161 109.509 C 177.947 110.380,177.586 111.380,177.360 111.730 C 177.133 112.081,176.781 113.141,176.579 114.086 C 176.376 115.031,176.092 115.957,175.948 116.143 C 175.804 116.329,175.517 117.173,175.311 118.017 C 175.105 118.861,174.738 119.859,174.496 120.235 C 174.254 120.611,173.966 121.490,173.855 122.187 C 173.745 122.884,173.395 124.097,173.079 124.881 C 172.763 125.666,172.089 127.591,171.583 129.160 C 170.419 132.763,170.388 132.777,163.391 132.750 C 156.008 132.721,155.759 132.577,154.484 127.575 C 154.008 125.709,153.191 123.266,152.525 121.712 C 152.263 121.101,151.866 119.818,151.643 118.859 C 151.204 116.977,150.485 114.784,149.565 112.520 C 149.247 111.735,148.893 110.523,148.779 109.826 C 148.666 109.128,148.387 108.344,148.161 108.082 C 147.935 107.821,147.575 106.894,147.363 106.022 C 147.150 105.151,146.802 104.081,146.589 103.645 C 146.376 103.209,146.101 102.282,145.978 101.585 C 145.854 100.887,145.555 100.009,145.313 99.633 C 145.071 99.257,144.705 98.259,144.499 97.415 C 144.293 96.570,144.015 95.737,143.882 95.563 C 143.749 95.388,143.422 94.461,143.156 93.502 C 142.679 91.783,142.134 90.110,141.039 87.005 C 139.929 83.859,139.400 82.220,138.938 80.507 C 138.680 79.548,138.284 78.336,138.059 77.813 C 137.833 77.290,137.256 75.578,136.777 74.010 C 136.297 72.441,135.618 70.397,135.266 69.469 C 134.540 67.552,134.786 66.446,136.051 65.938 C 137.390 65.400,149.363 65.540,150.167 66.104 M231.712 66.644 C 235.818 68.052,237.627 68.991,240.405 71.160 C 243.133 73.291,245.636 75.903,245.640 76.624 C 245.641 76.842,245.783 77.021,245.955 77.021 C 246.677 77.021,249.499 82.335,249.894 84.439 C 250.021 85.117,250.365 86.036,250.657 86.482 C 251.098 87.156,251.187 88.129,251.176 92.221 C 251.164 97.458,250.902 98.759,248.938 103.368 C 248.520 104.348,248.177 105.289,248.177 105.458 C 248.177 105.627,247.892 106.024,247.544 106.339 C 247.195 106.655,246.910 107.100,246.910 107.328 C 246.910 107.556,246.624 107.896,246.276 108.082 C 245.927 108.269,245.642 108.651,245.642 108.931 C 245.642 109.211,244.294 110.751,242.647 112.354 C 239.374 115.537,239.405 115.453,240.561 118.067 C 240.869 118.764,241.229 119.681,241.361 120.105 C 241.493 120.529,241.867 121.313,242.194 121.848 C 242.520 122.383,242.787 123.035,242.787 123.296 C 242.787 123.558,243.067 124.342,243.409 125.040 C 247.069 132.499,246.863 132.816,238.384 132.787 C 231.040 132.762,230.934 132.711,229.279 128.368 C 228.980 127.583,228.557 126.727,228.339 126.466 C 228.120 126.204,227.843 125.563,227.722 125.040 C 227.407 123.674,225.941 120.670,225.368 120.216 C 225.025 119.944,223.095 119.827,218.831 119.820 L 212.780 119.810 212.412 120.617 C 212.182 121.122,212.044 123.317,212.044 126.474 L 212.044 131.523 211.188 132.085 C 209.940 132.904,199.415 133.118,198.241 132.348 L 197.464 131.840 197.464 99.429 C 197.464 70.158,197.514 66.949,197.974 66.291 L 198.484 65.563 213.901 65.693 L 229.319 65.823 231.712 66.644 M212.441 80.864 C 211.676 81.643,211.890 104.041,212.668 104.745 C 213.403 105.410,224.793 105.283,227.722 104.578 C 236.381 102.492,239.489 90.393,233.027 83.930 C 232.128 83.031,231.380 82.468,229.946 81.610 L 228.368 80.666 220.602 80.563 C 214.618 80.484,212.746 80.553,212.441 80.864 M122.073 111.224 L 122.821 111.830 122.979 140.652 C 123.110 164.442,123.214 169.566,123.573 169.999 C 123.972 170.479,126.401 170.523,152.708 170.523 C 186.364 170.523,182.567 169.939,182.567 175.119 C 182.567 180.487,186.930 179.856,149.016 179.968 C 116.099 180.065,114.465 180.029,113.633 179.198 C 113.065 178.630,112.891 113.251,113.454 111.771 C 113.805 110.847,114.319 110.733,118.428 110.666 C 120.853 110.626,121.446 110.717,122.073 111.224 M273.758 111.569 C 274.425 112.889,274.344 178.371,273.675 179.327 L 273.181 180.032 239.498 180.032 L 205.816 180.032 205.091 179.260 C 204.407 178.532,204.373 178.286,204.487 174.948 C 204.670 169.611,200.877 170.206,234.731 170.206 C 262.720 170.206,263.377 170.192,263.697 169.593 C 263.916 169.184,264.025 159.608,264.025 140.765 C 264.025 111.754,264.050 111.157,265.258 110.823 C 267.280 110.265,273.369 110.799,273.758 111.569 M345.707 217.116 C 346.291 218.269,346.292 271.108,345.709 272.266 C 344.755 274.163,342.894 273.340,340.099 269.783 C 339.205 268.646,338.594 268.533,337.681 269.334 C 336.844 270.069,336.168 270.491,334.020 271.621 C 320.153 278.914,304.216 268.596,304.172 252.298 C 304.146 242.636,309.047 235.624,318.675 231.547 C 321.945 230.162,328.059 230.320,331.740 231.885 C 334.444 233.034,334.379 233.192,334.387 225.515 C 334.397 215.860,334.203 216.144,340.720 216.249 C 345.262 216.323,345.311 216.331,345.707 217.116 M40.421 218.762 C 41.611 219.304,41.991 220.229,44.231 228.051 C 45.954 234.065,46.342 235.385,46.789 236.767 C 47.461 238.839,48.465 242.367,48.955 244.374 C 49.189 245.333,49.593 246.616,49.853 247.227 C 50.113 247.837,50.425 248.942,50.547 249.683 C 50.955 252.162,52.304 251.049,52.905 247.738 C 53.091 246.712,53.363 245.713,53.510 245.519 C 53.656 245.325,53.967 244.340,54.201 243.329 C 54.434 242.319,54.734 241.425,54.866 241.343 C 54.999 241.261,55.267 240.376,55.462 239.376 C 55.657 238.377,56.079 236.775,56.401 235.816 C 56.722 234.857,57.365 232.718,57.829 231.062 C 61.580 217.670,61.004 218.385,68.046 218.384 C 74.229 218.383,75.213 218.860,74.272 221.397 C 74.014 222.093,73.674 223.277,73.516 224.028 C 73.358 224.779,73.038 225.849,72.803 226.405 C 72.103 228.069,71.309 230.450,70.671 232.805 C 70.341 234.025,69.942 235.309,69.784 235.657 C 69.627 236.006,69.039 237.789,68.478 239.620 C 67.916 241.450,67.201 243.590,66.889 244.374 C 66.577 245.158,66.223 246.353,66.102 247.028 C 65.982 247.703,65.759 248.488,65.607 248.771 C 65.330 249.286,64.511 251.706,63.393 255.309 C 62.733 257.438,62.012 259.606,61.180 261.965 C 60.146 264.897,59.550 266.710,59.113 268.255 C 57.760 273.037,57.474 273.217,51.232 273.217 C 45.669 273.217,45.584 273.179,44.595 270.267 C 44.347 269.536,43.967 268.439,43.751 267.829 C 43.534 267.219,43.096 265.864,42.778 264.818 C 42.101 262.596,40.120 256.640,39.300 254.358 C 38.729 252.770,36.662 246.352,34.809 240.412 C 34.265 238.669,33.574 236.529,33.273 235.658 C 31.890 231.653,31.056 228.960,31.059 228.506 C 31.060 228.234,30.777 227.421,30.428 226.699 C 30.079 225.978,29.791 225.131,29.787 224.817 C 29.783 224.504,29.498 223.625,29.153 222.866 C 28.303 220.991,28.331 219.507,29.231 218.877 C 30.126 218.250,39.094 218.158,40.421 218.762 M104.684 218.851 C 122.039 221.695,128.829 243.589,116.262 256.180 C 112.898 259.551,112.927 258.417,116.027 265.210 C 116.364 265.949,116.640 266.653,116.640 266.774 C 116.640 266.896,116.933 267.599,117.290 268.337 C 119.326 272.543,118.664 273.217,112.491 273.217 C 107.120 273.217,106.330 273.017,105.695 271.498 C 105.444 270.898,105.113 270.330,104.959 270.234 C 104.804 270.139,104.587 269.606,104.476 269.050 C 104.298 268.162,103.519 266.281,102.265 263.708 C 101.881 262.922,101.841 262.915,97.136 262.825 C 90.408 262.696,91.034 262.222,90.911 267.541 C 90.776 273.420,90.994 273.217,84.786 273.217 C 80.803 273.217,80.171 273.145,79.512 272.611 L 78.764 272.005 78.764 246.383 C 78.764 219.661,78.778 219.336,79.946 218.773 C 81.097 218.219,101.211 218.281,104.684 218.851 M187.616 218.847 C 188.849 219.485,188.906 219.745,188.906 224.726 C 188.906 230.986,190.276 230.428,174.924 230.428 L 162.611 230.428 162.434 231.141 C 162.337 231.533,162.298 233.566,162.349 235.658 L 162.441 239.461 169.414 239.633 C 178.707 239.861,178.130 239.436,178.130 246.047 C 178.130 252.249,178.782 251.794,169.699 251.924 C 162.701 252.023,162.598 252.034,162.446 252.716 C 162.361 253.096,162.253 257.592,162.207 262.707 L 162.124 272.006 161.375 272.612 C 160.323 273.463,151.741 273.529,150.817 272.693 C 149.869 271.834,149.921 219.968,150.872 219.017 C 151.719 218.170,185.999 218.011,187.616 218.847 M301.457 219.039 L 302.377 219.695 302.377 224.578 L 302.377 229.461 301.442 229.944 C 300.654 230.352,298.690 230.428,288.959 230.428 L 277.410 230.428 276.899 231.209 C 276.309 232.108,276.168 237.417,276.696 238.807 L 277.005 239.620 284.391 239.620 C 294.279 239.620,294.111 239.512,294.126 245.862 C 294.136 249.832,294.098 250.089,293.372 250.933 L 292.607 251.823 285.058 251.919 C 275.738 252.037,276.387 251.681,276.387 256.670 C 276.387 261.592,275.137 261.151,289.101 261.163 C 300.355 261.172,300.732 261.193,301.542 261.830 L 302.377 262.487 302.377 267.358 C 302.377 272.034,302.349 272.250,301.673 272.724 C 300.947 273.232,266.747 273.512,265.466 273.020 C 264.020 272.465,264.025 272.564,264.025 245.626 L 264.025 220.223 265.010 219.303 L 265.994 218.384 283.265 218.384 C 300.218 218.384,300.553 218.396,301.457 219.039 M91.680 230.937 C 90.881 231.518,90.537 248.367,91.295 249.783 C 91.655 250.455,102.752 250.755,103.155 250.104 C 103.254 249.943,103.751 249.720,104.258 249.608 C 112.650 247.765,112.392 233.602,103.922 231.170 C 101.302 230.418,92.622 230.253,91.680 230.937 M212.995 231.599 C 214.303 232.026,215.586 232.562,215.848 232.790 C 216.109 233.019,216.609 233.293,216.957 233.399 C 217.306 233.506,218.215 234.164,218.978 234.863 C 219.741 235.562,220.464 236.133,220.585 236.133 C 221.511 236.133,225.674 242.782,225.674 244.260 C 225.674 244.671,225.811 245.008,225.978 245.008 C 227.186 245.008,227.529 256.330,226.388 258.512 C 226.033 259.191,225.583 260.336,225.389 261.056 C 225.195 261.776,224.823 262.542,224.563 262.759 C 224.302 262.975,224.089 263.320,224.089 263.526 C 224.089 264.908,218.105 270.873,216.108 271.483 C 215.704 271.606,215.144 271.908,214.864 272.153 C 212.982 273.800,204.552 274.559,200.792 273.419 C 195.135 271.704,189.078 266.765,187.619 262.678 C 187.385 262.025,187.096 261.490,186.975 261.490 C 186.180 261.490,185.118 256.239,185.116 252.298 C 185.112 245.322,187.688 239.477,192.402 235.764 C 193.356 235.013,194.315 234.227,194.534 234.019 C 194.753 233.810,195.253 233.539,195.644 233.416 C 196.035 233.294,196.695 232.928,197.111 232.603 C 197.527 232.278,198.097 232.012,198.379 232.011 C 198.660 232.010,199.319 231.783,199.842 231.507 C 202.213 230.254,209.018 230.302,212.995 231.599 M235.774 233.227 C 236.407 233.896,237.259 234.849,237.668 235.347 C 238.276 236.088,238.505 236.186,238.935 235.890 C 240.406 234.877,242.836 233.601,243.633 233.422 C 244.128 233.312,245.032 232.985,245.642 232.696 C 246.555 232.264,247.833 232.171,252.878 232.171 C 260.451 232.171,259.905 231.734,259.905 237.793 C 259.905 243.716,259.886 243.737,254.610 243.746 C 243.704 243.765,243.118 244.589,243.102 259.905 C 243.091 270.101,242.912 272.426,242.099 272.942 C 241.125 273.559,233.008 273.261,232.330 272.583 C 231.428 271.682,231.324 233.583,232.220 232.592 C 233.107 231.612,234.475 231.857,235.774 233.227 M203.285 242.754 C 202.739 242.896,201.861 243.318,201.334 243.693 C 200.808 244.067,200.277 244.374,200.155 244.374 C 197.781 244.374,195.961 252.895,197.616 256.260 C 198.045 257.132,198.400 257.997,198.405 258.184 C 198.411 258.370,198.755 258.818,199.169 259.179 C 199.584 259.539,199.976 259.957,200.041 260.107 C 200.474 261.113,203.561 262.124,206.201 262.124 C 212.617 262.124,216.068 257.348,215.001 249.943 C 214.227 244.568,208.901 241.300,203.285 242.754 M322.375 242.684 C 316.482 243.936,313.698 255.104,318.330 258.914 C 318.621 259.153,318.859 259.521,318.859 259.732 C 318.859 261.750,326.476 262.875,329.262 261.269 C 339.196 255.543,333.551 240.312,322.375 242.684 " stroke="none" fill="#fbfbfb" fill-rule="evenodd"></path><path id="path2" d="M265.258 110.823 C 264.050 111.157,264.025 111.754,264.025 140.765 C 264.025 159.608,263.916 169.184,263.697 169.593 C 263.377 170.192,262.720 170.206,234.731 170.206 C 200.877 170.206,204.670 169.611,204.487 174.948 C 204.373 178.286,204.407 178.532,205.091 179.260 L 205.816 180.032 239.498 180.032 L 273.181 180.032 273.675 179.327 C 274.344 178.371,274.425 112.889,273.758 111.569 C 273.369 110.799,267.280 110.265,265.258 110.823 M113.522 111.742 C 113.250 112.339,113.154 121.203,113.154 145.639 L 113.154 178.728 113.858 179.221 C 115.038 180.048,181.293 179.964,182.043 179.135 C 182.779 178.321,182.803 172.269,182.074 171.227 L 181.581 170.523 152.805 170.523 L 124.029 170.523 123.425 169.856 C 122.843 169.213,122.815 168.146,122.662 140.458 C 122.575 124.656,122.389 111.549,122.248 111.331 C 121.674 110.445,113.947 110.809,113.522 111.742 " stroke="none" fill="#5cc5ce" fill-rule="evenodd"></path><path id="path3" d="M206.022 20.251 C 205.231 20.472,205.230 20.479,205.230 24.420 L 205.230 28.368 234.339 28.526 L 263.448 28.685 264.053 29.433 C 264.640 30.157,264.659 31.091,264.659 58.525 C 264.659 92.205,264.035 88.431,269.610 88.431 L 273.537 88.431 273.456 54.279 L 273.376 20.127 240.095 20.078 C 221.791 20.052,206.458 20.130,206.022 20.251 " stroke="none" fill="#84c43c" fill-rule="evenodd"></path><path id="path4" d="M113.178 19.521 L 112.203 20.342 112.203 54.228 C 112.203 87.367,112.216 88.128,112.819 88.730 C 113.659 89.570,115.043 89.778,118.955 89.649 C 124.206 89.477,123.596 93.386,123.691 59.303 L 123.772 30.269 152.671 30.111 C 187.267 29.921,183.316 30.643,183.448 24.487 L 183.536 20.357 182.552 19.529 L 181.568 18.700 147.861 18.700 L 114.153 18.700 113.178 19.521 M204.581 19.856 C 203.685 20.823,203.400 27.499,204.210 28.554 C 205.164 29.796,205.116 29.794,234.535 29.794 L 263.090 29.794 263.399 30.607 C 263.592 31.113,263.708 42.165,263.708 59.908 L 263.708 88.395 264.413 88.889 C 265.223 89.456,273.005 89.607,273.851 89.072 C 274.537 88.638,274.576 20.367,273.891 19.542 C 273.492 19.060,270.694 19.017,239.407 19.017 L 205.358 19.017 204.581 19.856 M181.762 20.476 C 182.715 21.430,182.324 28.276,181.300 28.560 C 180.864 28.681,167.742 28.796,152.139 28.816 C 136.537 28.836,123.591 28.968,123.370 29.108 C 122.424 29.709,122.345 32.015,122.345 59.369 C 122.345 77.951,122.236 87.409,122.017 87.818 C 121.433 88.911,114.205 88.735,113.780 87.618 C 113.586 87.109,113.471 74.441,113.471 53.693 L 113.471 20.582 114.184 20.295 C 115.615 19.720,181.181 19.895,181.762 20.476 M273.456 54.279 L 273.537 88.431 269.610 88.431 C 264.035 88.431,264.659 92.205,264.659 58.525 C 264.659 31.091,264.640 30.157,264.053 29.433 L 263.448 28.685 234.339 28.526 L 205.230 28.368 205.230 24.420 C 205.230 20.479,205.231 20.472,206.022 20.251 C 206.458 20.130,221.791 20.052,240.095 20.078 L 273.376 20.127 273.456 54.279 M136.051 65.938 C 134.786 66.446,134.540 67.552,135.266 69.469 C 135.618 70.397,136.297 72.441,136.777 74.010 C 137.256 75.578,137.833 77.290,138.059 77.813 C 138.284 78.336,138.680 79.548,138.938 80.507 C 139.400 82.220,139.929 83.859,141.039 87.005 C 142.134 90.110,142.679 91.783,143.156 93.502 C 143.422 94.461,143.749 95.388,143.882 95.563 C 144.015 95.737,144.293 96.570,144.499 97.415 C 144.705 98.259,145.071 99.257,145.313 99.633 C 145.555 100.009,145.854 100.887,145.978 101.585 C 146.101 102.282,146.376 103.209,146.589 103.645 C 146.802 104.081,147.150 105.151,147.363 106.022 C 147.575 106.894,147.935 107.821,148.161 108.082 C 148.387 108.344,148.666 109.128,148.779 109.826 C 148.893 110.523,149.247 111.735,149.565 112.520 C 150.485 114.784,151.204 116.977,151.643 118.859 C 151.866 119.818,152.263 121.101,152.525 121.712 C 153.191 123.266,154.008 125.709,154.484 127.575 C 155.759 132.577,156.008 132.721,163.391 132.750 C 170.388 132.777,170.419 132.763,171.583 129.160 C 172.089 127.591,172.763 125.666,173.079 124.881 C 173.395 124.097,173.745 122.884,173.855 122.187 C 173.966 121.490,174.254 120.611,174.496 120.235 C 174.738 119.859,175.105 118.861,175.311 118.017 C 175.517 117.173,175.804 116.329,175.948 116.143 C 176.092 115.957,176.376 115.031,176.579 114.086 C 176.781 113.141,177.133 112.081,177.360 111.730 C 177.586 111.380,177.947 110.380,178.161 109.509 C 178.376 108.637,178.731 107.639,178.951 107.290 C 179.171 106.941,179.454 106.086,179.581 105.388 C 179.707 104.691,179.995 103.835,180.220 103.487 C 180.446 103.138,180.783 102.139,180.971 101.268 C 181.158 100.396,181.451 99.398,181.622 99.049 C 182.041 98.195,183.151 94.977,183.698 93.027 C 183.943 92.155,184.347 90.943,184.596 90.333 C 184.845 89.723,185.437 87.940,185.913 86.371 C 186.389 84.802,187.023 82.876,187.322 82.092 C 187.621 81.307,188.250 79.382,188.719 77.813 C 189.187 76.244,189.838 74.247,190.165 73.376 C 193.036 65.714,192.905 65.564,183.507 65.683 L 176.748 65.769 175.911 67.195 C 175.451 67.979,174.900 69.334,174.686 70.206 C 174.473 71.078,174.090 72.243,173.835 72.795 C 173.579 73.347,173.281 74.488,173.172 75.330 C 173.063 76.173,172.799 77.076,172.586 77.338 C 172.373 77.599,171.969 78.669,171.688 79.715 C 170.358 84.661,169.921 86.136,169.484 87.163 C 169.224 87.773,168.840 88.914,168.631 89.699 C 168.422 90.483,167.983 92.052,167.656 93.185 C 167.101 95.109,166.877 95.823,165.596 99.762 C 165.327 100.590,164.893 102.052,164.633 103.011 C 163.828 105.972,162.886 106.308,162.231 103.866 C 161.500 101.142,160.426 97.559,160.169 96.989 C 160.051 96.727,159.704 95.586,159.398 94.453 C 158.889 92.572,158.531 91.384,157.056 86.688 C 156.059 83.515,155.309 80.962,155.100 80.032 C 154.983 79.509,154.628 78.510,154.312 77.813 C 153.997 77.116,153.735 76.183,153.731 75.741 C 153.727 75.298,153.459 74.415,153.134 73.778 C 152.809 73.141,152.448 72.023,152.331 71.294 C 152.215 70.565,151.839 69.352,151.495 68.599 C 151.152 67.846,150.872 67.087,150.872 66.913 C 150.872 65.710,138.623 64.904,136.051 65.938 M197.974 66.291 C 197.514 66.949,197.464 70.158,197.464 99.429 L 197.464 131.840 198.241 132.348 C 199.415 133.118,209.940 132.904,211.188 132.085 L 212.044 131.523 212.044 126.474 C 212.044 123.317,212.182 121.122,212.412 120.617 L 212.780 119.810 218.831 119.820 C 223.095 119.827,225.025 119.944,225.368 120.216 C 225.941 120.670,227.407 123.674,227.722 125.040 C 227.843 125.563,228.120 126.204,228.339 126.466 C 228.557 126.727,228.980 127.583,229.279 128.368 C 230.934 132.711,231.040 132.762,238.384 132.787 C 246.863 132.816,247.069 132.499,243.409 125.040 C 243.067 124.342,242.787 123.558,242.787 123.296 C 242.787 123.035,242.520 122.383,242.194 121.848 C 241.867 121.313,241.493 120.529,241.361 120.105 C 241.229 119.681,240.869 118.764,240.561 118.067 C 239.405 115.453,239.374 115.537,242.647 112.354 C 244.294 110.751,245.642 109.211,245.642 108.931 C 245.642 108.651,245.927 108.269,246.276 108.082 C 246.624 107.896,246.910 107.556,246.910 107.328 C 246.910 107.100,247.195 106.655,247.544 106.339 C 247.892 106.024,248.177 105.627,248.177 105.458 C 248.177 105.289,248.520 104.348,248.938 103.368 C 250.902 98.759,251.164 97.458,251.176 92.221 C 251.187 88.129,251.098 87.156,250.657 86.482 C 250.365 86.036,250.021 85.117,249.894 84.439 C 249.499 82.335,246.677 77.021,245.955 77.021 C 245.783 77.021,245.641 76.842,245.640 76.624 C 245.636 75.903,243.133 73.291,240.405 71.160 C 237.627 68.991,235.818 68.052,231.712 66.644 L 229.319 65.823 213.901 65.693 L 198.484 65.563 197.974 66.291 M149.255 67.279 C 149.845 67.583,150.223 68.345,150.941 70.681 C 151.450 72.338,152.078 74.334,152.338 75.119 C 152.598 75.903,153.019 77.383,153.273 78.407 C 153.527 79.431,153.839 80.429,153.966 80.625 C 154.093 80.822,154.436 81.910,154.730 83.043 C 155.828 87.287,156.589 89.874,156.895 90.408 C 157.069 90.710,157.211 91.132,157.211 91.344 C 157.211 91.556,157.643 93.162,158.172 94.914 C 158.701 96.665,159.341 98.811,159.595 99.683 C 162.355 109.159,162.361 109.173,163.595 108.534 C 164.344 108.147,164.631 107.550,165.601 104.358 C 166.224 102.310,167.087 99.532,167.519 98.186 C 167.951 96.840,168.304 95.406,168.304 95.001 C 168.304 94.595,168.438 94.128,168.601 93.962 C 168.764 93.796,169.200 92.529,169.569 91.147 C 169.938 89.764,170.320 88.504,170.417 88.346 C 170.514 88.189,170.779 87.252,171.006 86.265 C 171.233 85.277,171.654 83.756,171.942 82.884 C 172.411 81.466,173.037 79.367,173.974 76.070 C 174.358 74.718,175.076 72.541,176.138 69.507 C 177.108 66.734,177.003 66.766,184.750 66.928 C 190.821 67.056,191.008 67.165,189.869 69.889 C 189.724 70.238,188.433 74.160,187.002 78.605 C 183.633 89.072,183.263 90.211,182.687 91.918 C 182.422 92.702,181.773 94.770,181.244 96.513 C 180.715 98.257,180.066 100.182,179.800 100.792 C 179.534 101.403,179.131 102.615,178.903 103.487 C 178.366 105.540,177.242 108.921,176.675 110.191 C 176.429 110.740,176.228 111.493,176.228 111.864 C 176.228 112.235,175.872 113.386,175.436 114.422 C 175.000 115.457,174.643 116.459,174.643 116.648 C 174.643 116.837,174.371 117.590,174.038 118.322 C 173.705 119.053,173.330 120.222,173.205 120.919 C 173.079 121.616,172.850 122.347,172.695 122.542 C 172.541 122.738,172.194 123.665,171.925 124.603 C 171.655 125.540,171.241 126.735,171.005 127.258 C 170.769 127.781,170.476 128.747,170.354 129.403 C 169.945 131.614,169.261 131.859,163.586 131.823 C 157.195 131.782,157.188 131.780,156.501 129.623 C 156.197 128.671,155.808 127.607,155.635 127.258 C 155.462 126.910,155.183 126.054,155.015 125.357 C 154.847 124.659,154.267 122.876,153.726 121.395 C 153.184 119.913,152.539 117.987,152.291 117.116 C 152.044 116.244,151.703 115.246,151.534 114.897 C 151.366 114.548,151.003 113.450,150.729 112.457 C 150.454 111.463,150.089 110.563,149.917 110.457 C 149.745 110.351,149.599 109.951,149.593 109.569 C 149.587 109.187,149.008 107.235,148.306 105.230 C 147.604 103.225,146.820 100.738,146.563 99.703 C 146.307 98.669,145.984 97.670,145.846 97.485 C 145.707 97.299,145.421 96.506,145.209 95.721 C 144.997 94.937,144.627 93.796,144.388 93.185 C 144.148 92.575,143.496 90.578,142.939 88.748 C 142.381 86.918,141.383 83.780,140.721 81.775 C 136.157 67.949,136.021 67.357,137.349 67.098 C 139.077 66.761,148.528 66.904,149.255 67.279 M229.952 67.619 C 242.926 70.514,252.150 83.641,249.922 96.038 C 248.995 101.195,246.459 107.448,245.295 107.448 C 245.137 107.448,245.008 107.607,245.008 107.801 C 245.008 108.395,242.557 111.119,240.863 112.409 C 238.334 114.334,237.866 115.296,238.627 117.009 C 238.963 117.765,239.907 119.952,240.724 121.870 C 242.569 126.198,243.148 127.509,244.012 129.319 C 245.199 131.805,245.079 131.856,238.074 131.850 C 232.559 131.845,232.227 131.774,231.589 130.479 C 230.777 128.831,229.568 126.040,229.335 125.277 C 229.215 124.885,228.984 124.564,228.822 124.564 C 228.659 124.564,228.526 124.347,228.526 124.082 C 228.526 123.306,226.654 119.371,226.079 118.938 C 225.268 118.328,212.953 118.383,211.756 119.003 C 210.614 119.593,210.468 120.466,210.463 126.681 L 210.460 131.492 208.747 131.706 C 206.538 131.982,198.865 131.776,198.521 131.432 C 198.226 131.137,197.967 69.835,198.254 68.246 C 198.381 67.540,198.647 67.191,199.139 67.085 C 201.061 66.672,227.785 67.135,229.952 67.619 M211.851 79.233 C 210.721 79.689,210.652 80.329,210.527 91.442 C 210.377 104.878,210.433 105.435,211.991 106.089 C 213.639 106.781,226.717 106.538,227.905 105.794 C 228.334 105.525,229.113 105.208,229.635 105.089 C 230.158 104.970,231.153 104.490,231.846 104.021 C 241.485 97.502,239.457 83.687,228.293 79.811 C 225.726 78.920,213.674 78.496,211.851 79.233 M229.946 81.610 C 238.532 86.747,238.857 98.004,230.574 103.370 C 228.019 105.025,214.155 106.090,212.668 104.745 C 211.890 104.041,211.676 81.643,212.441 80.864 C 212.746 80.553,214.618 80.484,220.602 80.563 L 228.368 80.666 229.946 81.610 M116.889 110.852 C 117.810 110.916,119.236 110.916,120.058 110.851 C 120.880 110.786,120.127 110.733,118.384 110.734 C 116.640 110.735,115.968 110.788,116.889 110.852 M122.814 140.571 C 122.814 156.086,122.853 162.386,122.900 154.572 C 122.947 146.758,122.947 134.064,122.900 126.363 C 122.853 118.662,122.814 125.055,122.814 140.571 M131.458 179.952 C 140.392 179.999,155.012 179.999,163.946 179.952 C 172.880 179.906,165.571 179.867,147.702 179.867 C 129.834 179.867,122.524 179.906,131.458 179.952 M335.591 216.496 C 334.652 217.051,334.394 218.987,334.387 225.515 C 334.379 233.192,334.444 233.034,331.740 231.885 C 328.059 230.320,321.945 230.162,318.675 231.547 C 309.047 235.624,304.146 242.636,304.172 252.298 C 304.216 268.596,320.153 278.914,334.020 271.621 C 336.168 270.491,336.844 270.069,337.681 269.334 C 338.594 268.533,339.205 268.646,340.099 269.783 C 342.894 273.340,344.755 274.163,345.709 272.266 C 346.292 271.108,346.291 218.269,345.707 217.116 C 345.268 216.246,336.883 215.732,335.591 216.496 M345.174 218.246 C 345.528 219.177,345.553 269.728,345.200 270.997 C 344.754 272.599,343.130 271.918,341.638 269.504 C 341.288 268.938,340.586 268.178,340.079 267.817 L 339.156 267.160 337.803 267.806 C 337.059 268.161,335.808 268.920,335.024 269.493 C 325.475 276.470,311.041 271.418,306.646 259.561 C 304.749 254.445,305.380 246.345,308.004 242.118 C 308.396 241.487,308.716 240.825,308.716 240.646 C 308.716 240.182,312.800 235.995,314.112 235.114 C 319.964 231.184,328.498 230.374,332.169 233.398 C 335.460 236.110,335.975 235.047,335.975 225.549 C 335.975 216.774,335.521 217.486,341.133 217.454 C 344.856 217.433,344.866 217.435,345.174 218.246 M29.231 218.877 C 28.331 219.507,28.303 220.991,29.153 222.866 C 29.498 223.625,29.783 224.504,29.787 224.817 C 29.791 225.131,30.079 225.978,30.428 226.699 C 30.777 227.421,31.060 228.234,31.059 228.506 C 31.056 228.960,31.890 231.653,33.273 235.658 C 33.574 236.529,34.265 238.669,34.809 240.412 C 36.662 246.352,38.729 252.770,39.300 254.358 C 40.120 256.640,42.101 262.596,42.778 264.818 C 43.096 265.864,43.534 267.219,43.751 267.829 C 43.967 268.439,44.347 269.536,44.595 270.267 C 45.584 273.179,45.669 273.217,51.232 273.217 C 57.474 273.217,57.760 273.037,59.113 268.255 C 59.550 266.710,60.146 264.897,61.180 261.965 C 62.012 259.606,62.733 257.438,63.393 255.309 C 64.511 251.706,65.330 249.286,65.607 248.771 C 65.759 248.488,65.982 247.703,66.102 247.028 C 66.223 246.353,66.577 245.158,66.889 244.374 C 67.201 243.590,67.916 241.450,68.478 239.620 C 69.039 237.789,69.627 236.006,69.784 235.657 C 69.942 235.309,70.341 234.025,70.671 232.805 C 71.309 230.450,72.103 228.069,72.803 226.405 C 73.038 225.849,73.358 224.779,73.516 224.028 C 73.674 223.277,74.014 222.093,74.272 221.397 C 75.213 218.860,74.229 218.383,68.046 218.384 C 61.004 218.385,61.580 217.670,57.829 231.062 C 57.365 232.718,56.722 234.857,56.401 235.816 C 56.079 236.775,55.657 238.377,55.462 239.376 C 55.267 240.376,54.999 241.261,54.866 241.343 C 54.734 241.425,54.434 242.319,54.201 243.329 C 53.967 244.340,53.656 245.325,53.510 245.519 C 53.363 245.713,53.091 246.712,52.905 247.738 C 52.304 251.049,50.955 252.162,50.547 249.683 C 50.425 248.942,50.113 247.837,49.853 247.227 C 49.593 246.616,49.189 245.333,48.955 244.374 C 48.465 242.367,47.461 238.839,46.789 236.767 C 46.342 235.385,45.954 234.065,44.231 228.051 C 41.991 220.229,41.611 219.304,40.421 218.762 C 39.094 218.158,30.126 218.250,29.231 218.877 M79.946 218.773 C 78.778 219.336,78.764 219.661,78.764 246.383 L 78.764 272.005 79.512 272.611 C 80.171 273.145,80.803 273.217,84.786 273.217 C 90.994 273.217,90.776 273.420,90.911 267.541 C 91.034 262.222,90.408 262.696,97.136 262.825 C 101.841 262.915,101.881 262.922,102.265 263.708 C 103.519 266.281,104.298 268.162,104.476 269.050 C 104.587 269.606,104.804 270.139,104.959 270.234 C 105.113 270.330,105.444 270.898,105.695 271.498 C 106.330 273.017,107.120 273.217,112.491 273.217 C 118.664 273.217,119.326 272.543,117.290 268.337 C 116.933 267.599,116.640 266.896,116.640 266.774 C 116.640 266.653,116.364 265.949,116.027 265.210 C 112.927 258.417,112.898 259.551,116.262 256.180 C 128.829 243.589,122.039 221.695,104.684 218.851 C 101.211 218.281,81.097 218.219,79.946 218.773 M150.872 219.017 C 149.921 219.968,149.869 271.834,150.817 272.693 C 151.741 273.529,160.323 273.463,161.375 272.612 L 162.124 272.006 162.207 262.707 C 162.253 257.592,162.361 253.096,162.446 252.716 C 162.598 252.034,162.701 252.023,169.699 251.924 C 178.782 251.794,178.130 252.249,178.130 246.047 C 178.130 239.436,178.707 239.861,169.414 239.633 L 162.441 239.461 162.349 235.658 C 162.298 233.566,162.337 231.533,162.434 231.141 L 162.611 230.428 174.924 230.428 C 190.276 230.428,188.906 230.986,188.906 224.726 C 188.906 219.745,188.849 219.485,187.616 218.847 C 185.999 218.011,151.719 218.170,150.872 219.017 M265.010 219.303 L 264.025 220.223 264.025 245.626 C 264.025 272.564,264.020 272.465,265.466 273.020 C 266.747 273.512,300.947 273.232,301.673 272.724 C 302.349 272.250,302.377 272.034,302.377 267.358 L 302.377 262.487 301.542 261.830 C 300.732 261.193,300.355 261.172,289.101 261.163 C 275.137 261.151,276.387 261.592,276.387 256.670 C 276.387 251.681,275.738 252.037,285.058 251.919 L 292.607 251.823 293.372 250.933 C 294.098 250.089,294.136 249.832,294.126 245.862 C 294.111 239.512,294.279 239.620,284.391 239.620 L 277.005 239.620 276.696 238.807 C 276.168 237.417,276.309 232.108,276.899 231.209 L 277.410 230.428 288.959 230.428 C 298.690 230.428,300.654 230.352,301.442 229.944 L 302.377 229.461 302.377 224.578 L 302.377 219.695 301.457 219.039 C 300.553 218.396,300.218 218.384,283.265 218.384 L 265.994 218.384 265.010 219.303 M40.023 220.100 C 40.551 220.628,40.840 221.374,42.000 225.198 C 42.476 226.767,43.128 228.906,43.449 229.952 C 43.770 230.998,44.410 233.138,44.872 234.707 C 45.333 236.276,45.961 238.344,46.268 239.303 C 46.574 240.261,47.192 242.258,47.642 243.740 C 48.092 245.222,48.687 247.147,48.964 248.019 C 49.240 248.891,49.683 250.388,49.948 251.347 C 50.718 254.137,52.247 254.266,52.929 251.599 C 53.120 250.850,53.492 249.596,53.754 248.811 C 54.341 247.061,55.301 243.947,56.099 241.204 C 56.429 240.071,57.072 237.932,57.528 236.450 C 57.984 234.968,58.625 232.829,58.954 231.696 C 59.283 230.563,59.763 228.994,60.022 228.209 C 60.280 227.425,60.946 225.317,61.502 223.526 C 62.738 219.543,62.554 219.651,68.086 219.651 C 73.684 219.651,73.942 219.923,72.291 224.089 C 71.476 226.145,70.694 228.449,70.195 230.269 C 69.956 231.141,69.318 233.067,68.777 234.548 C 68.237 236.030,67.680 237.670,67.541 238.193 C 67.402 238.716,66.715 240.856,66.014 242.948 C 65.313 245.040,63.920 249.319,62.919 252.456 C 61.918 255.594,60.979 258.447,60.831 258.796 C 60.684 259.144,60.324 260.285,60.031 261.331 C 59.739 262.377,59.325 263.661,59.112 264.184 C 58.899 264.707,58.321 266.418,57.829 267.987 C 56.573 271.984,56.630 271.949,51.319 271.949 C 45.777 271.949,46.720 273.175,42.793 260.856 C 38.784 248.281,34.798 235.992,34.207 234.390 C 34.014 233.867,33.569 232.512,33.217 231.379 C 32.866 230.246,32.464 229.176,32.324 229.002 C 32.184 228.827,31.968 228.114,31.844 227.417 C 31.720 226.719,31.365 225.507,31.054 224.723 C 29.973 221.990,29.642 220.259,30.141 219.943 C 30.925 219.447,39.506 219.583,40.023 220.100 M106.190 220.501 C 112.282 222.416,115.881 225.252,119.290 230.822 C 121.300 234.107,122.566 243.959,121.198 245.673 C 121.003 245.917,120.662 246.688,120.440 247.385 C 119.394 250.673,117.501 253.402,113.869 256.857 C 111.571 259.042,111.558 258.398,114.008 264.025 C 117.598 272.274,117.676 271.949,112.110 271.949 C 106.791 271.949,107.364 272.426,104.300 265.452 C 103.994 264.754,103.585 263.799,103.391 263.329 C 102.659 261.549,101.808 261.320,96.369 261.442 C 89.531 261.596,89.710 261.455,89.704 266.651 C 89.697 272.013,89.756 271.949,84.761 271.949 C 81.215 271.949,80.815 271.892,80.518 271.336 C 80.002 270.372,80.069 220.535,80.586 220.013 C 81.330 219.263,103.603 219.687,106.190 220.501 M187.216 220.073 C 187.549 220.405,187.767 226.636,187.496 228.080 L 187.293 229.160 175.119 229.160 C 159.642 229.160,160.539 228.737,160.748 235.932 C 160.905 241.385,160.610 241.204,169.392 241.204 C 175.251 241.204,176.208 241.273,176.579 241.721 C 177.269 242.552,177.380 248.454,176.730 249.712 L 176.212 250.713 169.585 250.713 C 159.983 250.713,160.697 249.803,160.697 262.033 C 160.697 267.417,160.572 270.956,160.369 271.336 C 160.037 271.957,153.089 272.294,151.690 271.757 C 150.876 271.445,150.929 220.085,151.743 219.866 C 152.730 219.601,186.943 219.801,187.216 220.073 M300.763 220.091 C 301.009 220.388,301.099 221.914,301.040 224.767 L 300.951 229.002 288.906 229.160 C 273.788 229.359,274.967 228.765,275.171 236.081 C 275.319 241.420,274.580 241.010,284.401 241.204 L 292.393 241.363 292.482 245.598 C 292.599 251.181,293.302 250.713,284.787 250.713 C 274.578 250.713,275.119 250.374,275.119 256.768 C 275.119 262.936,273.902 262.431,288.764 262.436 C 302.397 262.441,301.109 261.969,301.109 266.962 C 301.109 272.578,303.347 271.949,283.360 271.949 C 266.784 271.949,266.256 271.931,265.938 271.336 C 265.285 270.116,265.505 220.378,266.165 219.994 C 267.104 219.447,300.306 219.540,300.763 220.091 M91.451 229.414 C 89.788 229.811,89.709 230.329,89.704 240.786 C 89.698 252.864,88.873 251.788,98.004 251.615 C 105.770 251.468,108.517 250.116,110.988 245.220 C 113.484 240.275,110.851 232.546,106.050 230.725 C 105.512 230.521,104.598 230.145,104.019 229.890 C 102.857 229.378,93.143 229.010,91.451 229.414 M103.922 231.170 C 112.392 233.602,112.650 247.765,104.258 249.608 C 103.751 249.720,103.254 249.943,103.155 250.104 C 102.752 250.755,91.655 250.455,91.295 249.783 C 90.537 248.367,90.881 231.518,91.680 230.937 C 92.622 230.253,101.302 230.418,103.922 231.170 M202.853 230.744 C 201.719 230.887,200.365 231.230,199.842 231.507 C 199.319 231.783,198.660 232.010,198.379 232.011 C 198.097 232.012,197.527 232.278,197.111 232.603 C 196.695 232.928,196.035 233.294,195.644 233.416 C 195.253 233.539,194.753 233.810,194.534 234.019 C 194.315 234.227,193.356 235.013,192.402 235.764 C 187.688 239.477,185.112 245.322,185.116 252.298 C 185.118 256.239,186.180 261.490,186.975 261.490 C 187.096 261.490,187.385 262.025,187.619 262.678 C 188.782 265.936,193.369 270.188,198.257 272.538 C 202.489 274.573,212.362 274.344,214.864 272.153 C 215.144 271.908,215.704 271.606,216.108 271.483 C 218.105 270.873,224.089 264.908,224.089 263.526 C 224.089 263.320,224.302 262.975,224.563 262.759 C 224.823 262.542,225.195 261.776,225.389 261.056 C 225.583 260.336,226.033 259.191,226.388 258.512 C 227.529 256.330,227.186 245.008,225.978 245.008 C 225.811 245.008,225.674 244.671,225.674 244.260 C 225.674 242.782,221.511 236.133,220.585 236.133 C 220.464 236.133,219.741 235.562,218.978 234.863 C 218.215 234.164,217.306 233.506,216.957 233.399 C 216.609 233.293,216.109 233.019,215.848 232.790 C 214.141 231.299,207.160 230.200,202.853 230.744 M210.460 232.033 C 211.767 232.393,213.407 232.965,214.105 233.302 C 214.802 233.640,215.515 233.917,215.689 233.918 C 216.292 233.922,220.120 237.115,221.414 238.693 C 225.443 243.604,227.399 252.583,225.473 257.329 C 225.235 257.917,225.040 258.656,225.040 258.972 C 225.040 259.878,224.299 261.302,222.135 264.558 C 219.949 267.846,214.249 271.560,210.236 272.308 C 192.919 275.539,180.674 257.627,189.136 241.444 C 192.811 234.414,202.920 229.953,210.460 232.033 M232.220 232.592 C 231.324 233.583,231.428 271.682,232.330 272.583 C 233.008 273.261,241.125 273.559,242.099 272.942 C 242.912 272.426,243.091 270.101,243.102 259.905 C 243.118 244.589,243.704 243.765,254.610 243.746 C 259.886 243.737,259.905 243.716,259.905 237.793 C 259.905 231.734,260.451 232.171,252.878 232.171 C 247.833 232.171,246.555 232.264,245.642 232.696 C 245.032 232.985,244.128 233.312,243.633 233.422 C 242.836 233.601,240.406 234.877,238.935 235.890 C 238.505 236.186,238.276 236.088,237.668 235.347 C 234.909 231.983,233.443 231.242,232.220 232.592 M258.057 233.805 C 258.776 234.456,258.924 240.721,258.241 241.584 C 257.927 241.980,256.927 242.119,253.407 242.254 C 247.083 242.496,244.536 243.639,242.866 246.983 C 242.171 248.373,242.155 248.653,242.151 259.306 C 242.145 272.890,242.558 271.762,237.551 271.882 C 232.085 272.014,232.647 274.235,232.647 252.485 C 232.647 233.663,232.651 233.597,233.941 233.597 C 234.486 233.597,236.767 235.890,236.767 236.437 C 236.767 237.029,238.871 237.162,239.819 236.630 C 240.319 236.349,241.499 235.685,242.440 235.154 C 245.547 233.402,256.561 232.451,258.057 233.805 M203.096 241.617 C 194.505 244.423,193.075 256.761,200.751 261.845 C 204.942 264.621,211.084 263.602,214.250 259.605 C 221.045 251.025,213.170 238.326,203.096 241.617 M322.243 241.494 C 311.742 244.946,312.384 260.438,323.142 263.198 C 328.547 264.584,334.558 260.263,335.657 254.202 C 337.073 246.394,329.413 239.138,322.243 241.494 M210.857 243.618 C 217.035 247.643,216.777 257.655,210.403 261.280 C 207.677 262.831,200.882 262.062,200.041 260.107 C 199.976 259.957,199.584 259.539,199.169 259.179 C 198.755 258.818,198.411 258.370,198.405 258.184 C 198.400 257.997,198.045 257.132,197.616 256.260 C 195.961 252.895,197.781 244.374,200.155 244.374 C 200.277 244.374,200.808 244.067,201.334 243.693 C 203.513 242.141,208.530 242.102,210.857 243.618 M329.391 243.515 C 337.871 248.484,334.847 262.124,325.265 262.124 C 322.653 262.124,318.859 260.707,318.859 259.732 C 318.859 259.521,318.621 259.153,318.330 258.914 C 315.302 256.423,315.368 248.582,318.446 245.166 C 320.934 242.406,326.154 241.618,329.391 243.515 " stroke="none" fill="#f1db9d" fill-rule="evenodd"></path></g></svg>